<svg width="24" height="18" viewBox="0 0 24 18" fill="none" xmlns="http://www.w3.org/2000/svg">
<path d="M14.2992 9.59201C14.2992 11.0904 13.0845 12.3051 11.5861 12.3051C10.0877 12.3051 8.87305 11.0904 8.87305 9.59201C8.87305 8.0936 10.0877 6.87891 11.5861 6.87891C13.0845 6.87891 14.2992 8.0936 14.2992 9.59201Z" fill="#3054C0"/>
<path fill-rule="evenodd" clip-rule="evenodd" d="M7.31776 16.2087C9.67056 17.2251 11.9336 17.3915 14.0306 16.9635C18.0064 16.152 21.1061 13.2551 22.8791 10.7309C23.3812 10.0159 23.318 9.08072 22.818 8.42914C21.5618 6.79189 20.2788 5.5108 18.9885 4.53795L17.5597 5.96674C18.7617 6.83363 19.9856 8.02703 21.2131 9.62292C19.6002 11.9025 16.9012 14.3364 13.6307 15.0039C12.1961 15.2967 10.594 15.2604 8.86237 14.6641L7.31776 16.2087ZM15.7895 4.90852C13.7968 3.95662 11.8928 3.83413 10.166 4.17121C6.81055 4.82621 3.86184 7.26583 2.0151 9.56257C3.71909 11.5356 5.36191 12.8926 6.91991 13.7781L5.46153 15.2365C3.82529 14.2274 2.15639 12.7904 0.479148 10.844C-0.113127 10.1566 -0.182678 9.10924 0.418838 8.35626C2.41973 5.85153 5.7611 2.99332 9.78279 2.20826C12.1755 1.74119 14.7223 2.02366 17.274 3.424L15.7895 4.90852Z" fill="#3054C0"/>
<path d="M3 16.5563L18.5563 0.999987" stroke="#3054C0" stroke-width="2" stroke-linecap="round"/>
</svg>
