<svg width="211" height="145" viewBox="0 0 211 145" fill="none" xmlns="http://www.w3.org/2000/svg">
<path fill-rule="evenodd" clip-rule="evenodd" d="M66.4725 20.8704C62.859 17.81 59.044 15.5147 55.0214 13.9845C50.9989 12.4542 46.7688 11.6891 42.3312 11.6891C33.749 11.6891 26.766 14.4277 21.3823 19.911C15.9986 25.3882 13.3067 32.4867 13.3067 41.2004C13.3067 49.6348 15.9253 56.5876 21.1687 62.0708C26.4059 67.548 33.0165 70.2927 40.9944 70.2927C45.6457 70.2927 50.0711 69.4729 54.2706 67.8395C58.4674 66.2071 62.4997 63.7318 66.3612 60.4256L66.3627 60.4192L66.3644 60.4229C66.3658 60.4217 66.3673 60.4204 66.3688 60.4192V60.4322L89.5395 109.732C89.8936 110.516 90.4429 111.815 91.1754 113.631C91.9079 115.446 92.793 117.687 93.8306 120.353C94.5814 118.112 95.7595 115.264 97.371 111.815C97.7982 110.892 98.1218 110.182 98.3354 109.678L120.975 60.4192L139.965 141.861H128.111L119.419 103.271C119.272 102.664 119.04 100.994 118.723 98.2556C118.436 95.9785 118.186 94.09 117.972 92.5962C117.648 94.3754 117.197 96.1546 116.605 97.9338C116.013 99.7129 115.274 101.529 114.377 103.375L93.8306 145L73.2846 102.518C72.4239 100.776 71.6853 99.0875 71.0566 97.448C70.4279 95.8145 69.8847 94.1932 69.4208 92.5902C69.3841 94.2297 69.2498 95.9421 69.0179 97.7395C68.7859 99.5369 68.438 101.413 67.9741 103.368L59.5506 141.848H47.8004L62.5411 77.1837C60.2039 78.4672 57.741 79.4963 55.1557 80.2694C51.1149 81.4778 46.7322 82.085 42.0138 82.085C36.0075 82.085 30.4528 81.1074 25.356 79.1521C20.2592 77.1969 15.7788 74.3125 11.915 70.5052C8.0878 66.7708 5.14567 62.3684 3.08862 57.298C1.02547 52.2216 0 46.8233 0 41.0972C0 35.371 1.02547 29.991 3.08252 24.951C5.13957 19.9171 8.11832 15.4965 12.0127 11.6891C15.9131 7.84538 20.3874 4.93676 25.4293 2.96327C30.4712 0.989781 35.9281 0 41.7941 0C46.4087 0 50.8097 0.66795 54.9909 2.00385C59.1721 3.33975 63.2313 5.35575 67.1684 8.06398L66.4725 20.8704ZM95.027 41.5404C89.7471 41.5404 85.6696 45.542 85.6696 50.7217C85.6696 55.8952 89.7471 59.9029 95.027 59.9029C100.307 59.9029 104.384 55.8952 104.384 50.7217C104.384 45.5481 100.307 41.5404 95.027 41.5404ZM95.027 43.9875C98.7932 43.9875 101.693 46.9204 101.693 50.7217C101.693 54.5168 98.7993 57.4558 95.027 57.4558C91.2609 57.4558 88.3615 54.5229 88.3615 50.7217C88.3615 46.9204 91.2609 43.9875 95.027 43.9875ZM79.6449 59.6478H82.2086H82.2147V41.7893H66.8266V59.6478H69.3902V44.2425H79.6449V59.6478ZM121.433 47.0175C121.433 49.9747 119.382 52.2457 115.689 52.2457H110.409V59.6418H107.845V41.7893H115.689C119.382 41.7893 121.433 44.0603 121.433 47.0175ZM118.741 47.0175C118.741 45.1533 117.667 44.1878 115.616 44.1878H110.409V49.8775H115.616C117.667 49.8775 118.741 48.8817 118.741 47.0175ZM131.559 44.2426H137.969H137.975V41.7954H122.587V44.2426H128.996V59.6479H131.559V44.2426ZM140.667 41.7893H143.224V56.1502L153.406 41.7893H156.561V59.6478H153.998V44.9043L143.487 59.6478H140.667V41.7893ZM169.221 59.6478C172.938 59.6478 175.014 57.4497 175.014 54.5957C175.014 52.859 174.196 51.432 172.481 50.5394C174.074 49.6711 174.764 48.2684 174.764 46.6349C174.764 43.9085 172.761 41.7893 169.197 41.7893H161.17V59.6478H169.221ZM172.169 46.7685C172.169 48.5781 171.119 49.5982 169.069 49.5982H163.734V44.1392H169.069C171.119 44.1392 172.169 45.0318 172.169 46.7685ZM169.093 51.8146C171.217 51.8146 172.322 52.7315 172.322 54.4925C172.322 56.3081 171.223 57.2979 169.093 57.2979H163.734V51.8146H169.093ZM193.857 41.7893V59.6478H191.293V51.9421H181.038V59.6478H178.475V41.7893H181.038V49.495H191.293V41.7893H193.857ZM201.035 49.5193V44.1878H210.521V41.7893H198.471V59.6478H210.521V57.2493H201.035V51.9178H209.752V49.5193H201.035ZM144.836 124.002V141.861H142.272V124.002H144.836ZM165.986 129.868C164.808 126.17 161.475 123.747 157.501 123.747C152.295 123.747 148.29 127.755 148.297 132.928C148.297 138.108 152.295 142.109 157.501 142.109C161.475 142.109 164.808 139.687 165.986 135.989H163.141C162.116 138.181 160.193 139.662 157.501 139.662C153.808 139.662 150.988 136.729 150.988 132.928C150.988 129.127 153.808 126.194 157.501 126.194C160.193 126.194 162.116 127.676 163.141 129.868H165.986ZM181.881 126.455H175.472V141.86H172.908V126.455H166.499V124.008H181.887V126.455H181.881ZM191.488 123.753C186.208 123.753 182.131 127.755 182.131 132.934C182.131 138.108 186.208 142.116 191.488 142.116C196.768 142.116 200.846 138.114 200.846 132.934C200.846 127.755 196.768 123.753 191.488 123.753ZM191.495 126.2C195.261 126.2 198.16 129.133 198.16 132.934C198.16 136.736 195.261 139.668 191.495 139.668C187.728 139.668 184.829 136.736 184.829 132.934C184.829 129.133 187.728 126.2 191.495 126.2Z" fill="url(#paint0_linear_244_2037)"/>
<defs>
<linearGradient id="paint0_linear_244_2037" x1="30.5" y1="38.5" x2="211" y2="145" gradientUnits="userSpaceOnUse">
<stop stop-color="#183895"/>
<stop offset="1" stop-color="#3054C0"/>
</linearGradient>
</defs>
</svg>
